<?xml version="1.0" encoding="utf-8"?>
<!-- Generator: Adobe Illustrator 26.4.1, SVG Export Plug-In . SVG Version: 6.00 Build 0)  -->
<svg version="1.1" id="Layer_1" xmlns="http://www.w3.org/2000/svg" xmlns:xlink="http://www.w3.org/1999/xlink" x="0px" y="0px"
	 viewBox="0 0 855 609.9" style="enable-background:new 0 0 855 609.9;" xml:space="preserve">
<style type="text/css">
	.st0{fill:#F3F4FE;}
	.st1{fill:#D2D6FA;}
	.st2{fill:#EDEEFE;}
	.st3{fill:#FFA84D;}
	.st4{fill:#FFBE83;}
	.st5{fill:#FFDAB2;}
	.st6{fill:#FF9F8C;}
	.st7{fill:#F78F7A;}
	.st8{fill:#FFECD9;}
	.st9{fill:#4970DB;}
	.st10{fill:#FFC3B5;}
	.st11{fill:#FCB798;}
	.st12{fill:#082A3C;}
	.st13{fill:#FE8F77;}
	.st14{fill:#962F4A;}
	.st15{fill:#E1617F;}
	.st16{fill:#FFFFFF;}
	.st17{fill:#541000;}
	.st18{fill:#011923;}
	.st19{fill:#0F4D68;}
	.st20{fill:#FB8265;}
	.st21{fill:#FFB2BF;}
	.st22{fill:#FF6D8D;}
	.st23{fill:#F9E0E5;}
	.st24{fill:#0D9A73;}
	.st25{fill:#0B8962;}
	.st26{opacity:0.38;fill:#F9E0E5;enable-background:new    ;}
	.st27{fill:#13B887;}
	.st28{fill:#F9A0B4;}
	.st29{fill:#FDC3CD;}
	.st30{fill:#473A82;}
	.st31{fill:#D7E2FF;}
	.st32{fill:#5476EF;}
</style>
<path class="st0" d="M837.1,378.5v71c0,24.1-19.5,43.7-43.7,43.8c0,0,0,0-0.1,0c-19.4,0-35.1,15.7-35.1,35c0,0,0,0,0,0v5.4
	c0,19.4-15.7,35.1-35.1,35.1l0,0H67.5c-25,0-45.3-20.3-45.3-45.3c0-9.4,2.9-18.5,8.3-26.2c1.5-2.1,3.2-4.1,5-5.9
	c8.5-8.5,20-13.3,32-13.2h35.9c32.6,0,60.2-24.1,64.4-56.5c0.3-1.9,0.4-3.9,0.5-5.9c0-0.9,0-1.8,0-2.6c0-35.9-29-65-64.9-65
	c0,0-0.1,0-0.1,0H89.3c-6.4,0-12.8-0.7-19.1-2.1c-36.4-8.2-63.7-38.5-68-75.6c-0.2-2-0.4-3.9-0.5-5.9c-0.1-1.3-0.1-2.7-0.1-4.1
	c0-48.4,39.2-87.7,87.6-87.7c0,0,0,0,0,0h1.3c22.9,0,41.5-18.6,41.5-41.5c0-4.1-0.6-8.2-1.8-12.1c-0.6-2-1.4-4-2.3-5.9
	c-6.9-14.3-21.4-23.4-37.3-23.4H74.7c-23.9,0-43.3-19.5-43.3-43.4c0,0,0,0,0,0c0-1,0-2,0.1-2.9c0.1-2,0.4-4,0.8-5.9
	C36.5,17.5,54.2,3.1,74.7,3.1h294.8c19.2,0,34.8,15.4,35.1,34.5v0.6v14.4c0,19.4,15.7,35.1,35,35.1c0,0,0,0,0,0
	c18,0,33,13.6,34.9,31.5c0.1,1.2,0.2,2.4,0.2,3.6v14.9c0,19.4,15.7,35.1,35.1,35.1h48.7c20.3,0,40.1,5.6,57.4,16.1
	c3,1.8,5.9,3.8,8.7,5.9c4.2,3.1,8.1,6.5,11.7,10.2c16.2,16.1,26.9,37,30.7,59.5c0.3,2,0.6,3.9,0.8,5.9c0.5,4.1,0.7,8.3,0.7,12.4
	c0,19.4,15.7,35.1,35.1,35.1h72.8C809.9,317.8,837,345,837.1,378.5C837,378.4,837,378.5,837.1,378.5L837.1,378.5z"/>
<path class="st1" d="M787.7,559.9h56.5c4.9,0,8.8,3.9,8.8,8.8v0c0,4.9-3.9,8.8-8.8,8.8h-56.5c-4.9,0-8.8-3.9-8.8-8.8v0
	C778.9,563.9,782.9,559.9,787.7,559.9z"/>
<path class="st1" d="M-29.4,559.9H763c4.9,0,8.8,3.9,8.8,8.8v0c0,4.9-3.9,8.8-8.8,8.8H-29.4c-4.9,0-8.8-3.9-8.8-8.8v0
	C-38.2,563.9-34.2,559.9-29.4,559.9z"/>
<g>
	<path class="st2" d="M404.6,38.2v5.3H31.5c0.1-2,0.4-4,0.8-5.9h372.3C404.6,37.9,404.6,38,404.6,38.2z"/>
	<path class="st2" d="M474.6,119.2H130.2c-0.6-2-1.4-4-2.3-5.9h345.5C474,115.2,474.4,117.2,474.6,119.2z"/>
	<path class="st2" d="M624.6,194.8H31.2c2.4-2.1,4.8-4.1,7.4-5.9h577.4C618.9,190.7,621.8,192.7,624.6,194.8z"/>
	<path class="st2" d="M667.9,270.4H2.2c-0.2-2-0.4-3.9-0.5-5.9H667C667.4,266.4,667.7,268.4,667.9,270.4L667.9,270.4z"/>
	<path class="st2" d="M827.6,346H70.2c-6-1.3-11.9-3.3-17.5-5.9h770.7C824.9,342,826.3,343.9,827.6,346L827.6,346z"/>
	<path class="st2" d="M837.1,415.7v5.9H167.9c0.3-1.9,0.4-3.9,0.5-5.9H837.1z"/>
	<path class="st2" d="M806.1,491.3c-4.2,1.3-8.5,1.9-12.8,1.9c-5.7,0-11.2,1.4-16.3,4H30.5c1.5-2.1,3.2-4.1,5-5.9L806.1,491.3z"/>
</g>
<path class="st3" d="M99,453.3l100-107.1c12-12.9,32.2-13.6,45.1-1.6l0.2,0.1c12.9,12,13.6,32.2,1.6,45.1L145.9,497
	c-12,12.9-32.2,13.6-45.1,1.6l-0.2-0.1C87.7,486.4,87,466.2,99,453.3z"/>
<path class="st3" d="M99,453.3l100-107.1c12-12.9,32.2-13.6,45.1-1.6l0.2,0.1c12.9,12,13.6,32.2,1.6,45.1L145.9,497
	c-12,12.9-32.2,13.6-45.1,1.6l-0.2-0.1C87.7,486.4,87,466.2,99,453.3z"/>
<path class="st4" d="M254.4,368.6c-1.7-3.9-4.2-7.4-7.3-10.3l-0.2-0.2c-12.9-12-33.1-11.3-45.1,1.6c0,0,0,0,0,0l-100,107.2
	c-5.4,5.8-8.5,13.4-8.6,21.3c-5.3-11.7-3-25.5,5.8-34.9l100-107.2c12-12.9,32.2-13.6,45.1-1.6c0,0,0,0,0,0l0.1,0.1
	C250.9,350.9,254.6,359.6,254.4,368.6L254.4,368.6z"/>
<path class="st3" d="M443.4,557.3c-16.7,5.7-34.9-3.1-40.7-19.9c0,0,0,0,0,0l-12.4-36.2l-6.7-19.5l-33.5-96.2
	c-5.7-16.7,3.2-35,19.9-40.7c16.7-5.7,35,3.2,40.7,19.9l28.1,80.6l24.4,71.3C469.1,533.3,460.2,551.5,443.4,557.3
	C443.4,557.2,443.4,557.2,443.4,557.3z"/>
<path class="st4" d="M445.8,556.3c-0.8,0.3-1.6,0.6-2.4,0.9c-16.7,5.8-34.9-3.1-40.7-19.8c0,0,0-0.1,0-0.1l-35.8-104.5
	c-5.8-16.7,3.1-34.9,19.8-40.7c4.1-1.4,8.4-2,12.7-1.7c-15.3,6.6-23,24-17.5,39.8l35.8,104.5C421.8,547,432.9,555.5,445.8,556.3z"/>
<g>
	<path class="st5" d="M223.6,394.2h154.7v165.7H223.6V394.2z"/>
	<path class="st5" d="M241,327.7h119.9c27.8,0,50.4,22.6,50.4,50.4c0,38.7-31.4,70.2-70.2,70.2h0h-80.3c-38.7,0-70.2-31.4-70.2-70.2
		l0,0C190.6,350.3,213.1,327.7,241,327.7L241,327.7z"/>
	<path class="st5" d="M223.6,394.2h154.7v165.7H223.6V394.2z"/>
	<path class="st5" d="M241,327.7h119.9c27.8,0,50.4,22.6,50.4,50.4c0,38.7-31.4,70.2-70.2,70.2h0h-80.3c-38.7,0-70.2-31.4-70.2-70.2
		l0,0C190.6,350.3,213.1,327.7,241,327.7L241,327.7z"/>
</g>
<path class="st6" d="M433.1,495.1h119.2c17.7,0,32,14.3,32,32v0c0,17.7-14.3,32-32,32H433.1c-17.7,0-32-14.3-32-32v0
	C401.1,509.4,415.4,495.1,433.1,495.1z"/>
<ellipse transform="matrix(0.9105 -0.4136 0.4136 0.9105 -165.1353 282.9343)" class="st6" cx="570.9" cy="522.9" rx="44.8" ry="35.1"/>
<path class="st7" d="M611.7,504.4c-0.6-1.3-1.2-2.5-2-3.7c4.2,16.8-7.4,36.4-27.9,45.7c-1.9,0.9-3.9,1.6-5.9,2.3
	c-8.2,2.8-17,3.4-25.5,1.8c-0.6,0-1.2,0.1-1.8,0.1h-11.8l-107.4,0.1c-11.1,0-21.4-5.7-27.2-15.2c3.8,14,16.5,23.7,30.9,23.6
	l119.2-0.1c0.6,0,1.2,0,1.8-0.1c10.6,1.9,21.5,0.5,31.3-4.1C607.9,544.7,619.7,522.1,611.7,504.4L611.7,504.4z"/>
<path class="st8" d="M360.4,327.7h-24.7c27.8,0,50.4,22.5,50.4,50.4c0,18.6-7.4,36.5-20.5,49.6c-1.7,1.7-3.5,3.3-5.4,4.8
	c-4.5,3.6-7.1,9-7.1,14.7v112.7h25.2V437.6c4.5-2.8,8.7-6.1,12.4-9.9c13-13,20.4-30.6,20.5-49.1
	C411.4,350.6,388.4,327.7,360.4,327.7z"/>
<path class="st6" d="M575.5,476.8L575.5,476.8c4.2,3.2,5,9.1,1.8,13.3l-15,19.8c-3.2,4.2-9.1,5-13.3,1.8l0,0
	c-4.2-3.2-5-9.1-1.8-13.3l15-19.8C565.3,474.5,571.3,473.7,575.5,476.8z"/>
<path class="st9" d="M271.4,535.8h10.3c13.3,0,24.1,10.8,24.1,24.1l0,0l0,0h-58.5l0,0C247.3,546.6,258.1,535.8,271.4,535.8
	C271.4,535.8,271.4,535.8,271.4,535.8L271.4,535.8z"/>
<path class="st6" d="M253.5,521.2c1.7,15.2-7.5,29.4-22.1,34.1l-0.8,0.2c-0.8,0.2-1.5,0.4-2.3,0.6l-0.8,0.2l-0.7,0.1h-0.1l-0.6,0.1
	H226c-1.4,0.2-2.7,0.3-4.1,0.3c-0.5,0-0.9,0-1.4,0c-0.7,0-1.4-0.1-2.1-0.1s-1.5-0.2-2.3-0.3c-3.1-0.5-6.2-1.6-9-3l-1.9-0.9
	l-96.5-49.3c-9.6-4.9-16.1-14.3-17.3-25c-0.2-1.5-0.2-3-0.2-4.6c0-0.8,0.1-1.5,0.2-2.3s0.2-1.5,0.3-2.3c0.2-1.2,0.5-2.3,0.8-3.4
	c0.1-0.4,0.2-0.8,0.4-1.1c0.2-0.7,0.5-1.5,0.8-2.2s0.7-1.5,1-2.2c0.2-0.3,0.4-0.7,0.5-1c0.5-0.9,1-1.8,1.6-2.6l0.1-0.2
	c0.1-0.2,0.3-0.5,0.5-0.7c5.1-6.9,12.9-11.5,21.4-12.7c0.6-0.1,1.1-0.1,1.6-0.2c6-0.5,11.9,0.6,17.3,3.4l98.4,50.2
	C245.8,501.1,252.3,510.5,253.5,521.2L253.5,521.2z"/>
<ellipse transform="matrix(0.1104 -0.9939 0.9939 0.1104 -320.0018 695.3476)" class="st6" cx="228.4" cy="526.4" rx="35" ry="44.6"/>
<path class="st10" d="M239.1,559.8c-3.9,0.4-7.9,0.4-11.8-0.1c-7.8-0.8-15.3-3.3-22.1-7.3l-96.5-49.3c-9.6-4.9-16.1-14.3-17.3-25
	c-0.2-1.5-0.2-3-0.2-4.6c0-0.8,0.1-1.5,0.2-2.3s0.2-1.5,0.3-2.3c0.2-1.2,0.5-2.3,0.8-3.4c0.1-0.4,0.2-0.8,0.4-1.1
	c0.2-0.7,0.5-1.5,0.8-2.2s0.7-1.5,1-2.2c0.2-0.3,0.4-0.7,0.5-1c0.5-0.9,1-1.8,1.6-2.6l0.1-0.2c0.1-0.2,0.3-0.5,0.5-0.7
	c5.1-6.9,12.9-11.5,21.4-12.7c0.6-0.1,1.1-0.1,1.6-0.2l-9.3,11.8c-0.3,0.4-0.7,0.9-1,1.3c-0.2,0.2-0.3,0.4-0.5,0.7l-0.1,0.2
	c-9.8,14.7-5.9,34.6,8.8,44.4c3.3,2.2,7.1,3.8,11,4.7c-0.8,0.1-1.5,0.3-2.3,0.3h-0.3l64.5,32.9l26.7,13.6l1.9,1
	c1.8,0.9,3.6,1.7,5.6,2.2c0.7,0.2,1.5,0.4,2.2,0.5l-0.7,0.1h-0.1l-0.6,0.1C230.3,558.2,234.7,559.3,239.1,559.8L239.1,559.8z"/>
<path class="st11" d="M236.2,490c-0.1,0-0.2,0-0.3,0l0.5,0.1L236.2,490z"/>
<g>
	<path class="st6" d="M254.5,488.5L254.5,488.5c1.6,5-1.1,10.3-6.1,11.9l-23.6,7.6c-5,1.6-10.3-1.1-11.9-6.1v0
		c-1.6-5,1.1-10.3,6.1-11.9l23.6-7.6C247.5,480.7,252.9,483.5,254.5,488.5z"/>
	<path class="st6" d="M295.7,537L295.7,537c-2.6,4.5-8.4,6-13,3.4l-33.8-19.7c-4.5-2.6-6-8.4-3.4-13h0c2.6-4.5,8.4-6,13-3.4
		l33.8,19.7C296.8,526.7,298.3,532.5,295.7,537z"/>
	<path class="st6" d="M289.1,554.4L289.1,554.4c-2.6,4.5-8.4,6-13,3.4l-33.8-19.7c-4.5-2.6-6-8.4-3.4-13h0c2.6-4.5,8.4-6,13-3.4
		l33.8,19.7C290.2,544.1,291.7,549.9,289.1,554.4z"/>
	<path class="st6" d="M264.4,559.8L264.4,559.8c-2.6,4.5-8.4,6-13,3.4l-33.8-19.7c-4.5-2.6-6-8.4-3.4-13h0c2.6-4.5,8.4-6,13-3.4
		l33.8,19.7C265.5,549.5,267,555.3,264.4,559.8z"/>
</g>
<ellipse transform="matrix(0.1096 -0.994 0.994 0.1096 -314.946 689.9406)" class="st10" cx="227.6" cy="520.8" rx="17.6" ry="22.4"/>
<path class="st12" d="M310.3,258.7L287.8,182c-1.7-5.6,1.5-11.4,7.1-13.1c0.8-0.2,1.7-0.4,2.5-0.4c28.7-0.9,52.6,21.6,53.5,50.3
	c0.6,18.7-8.9,36.2-24.8,45.9c-5,3.1-11.5,1.6-14.6-3.4C311,260.4,310.6,259.6,310.3,258.7L310.3,258.7z"/>
<path class="st6" d="M326.8,272.1l-0.1,26.5l-0.2,31.7l-69.1,0.5l0.2-46.7l0.1-11.6L326.8,272.1z"/>
<path class="st5" d="M333.6,312.2c2.8-0.1,5,2.1,5.1,4.9c0,0.2,0,0.3,0,0.5l-0.4,4.7l-0.7,7.7c-0.2,2.5-2.3,4.5-4.9,4.5l-80.9,1.8
	c-2.8,0.1-5-2.1-5.1-4.9c0-0.2,0-0.3,0-0.5l1.1-12.4c0.2-2.5,2.3-4.5,4.9-4.5L333.6,312.2z"/>
<path class="st13" d="M326.8,272.5l0.1,33.4c-4.4,2.4-9.3,3.6-14.3,3.6H300c-16.9,0.1-32.7-8.3-42.2-22.3v-14.6L326.8,272.5z"/>
<path class="st6" d="M314.2,301.3l-12.6,0c-28,0.1-50.8-22.6-50.9-50.6l0,0l-0.1-37.8c0-15.3,12.3-27.7,27.6-27.7l0,0l40.9-0.1
	c14,0,25.5,11.3,25.5,25.4l0.2,60.3C344.7,287.6,331.1,301.3,314.2,301.3L314.2,301.3z"/>
<path class="st10" d="M344.5,210.4l0.2,60.3c0.1,16.9-13.6,30.6-30.4,30.6c0,0,0,0,0,0h-12.6c-6.4,0-12.8-1.2-18.7-3.5
	c4.1,1,8.2,1.5,12.4,1.5h12.6c16.9,0,30.5-13.7,30.5-30.6c0,0,0,0,0,0l-0.2-60.2c0-9.8-5.7-18.7-14.5-22.9
	C335.7,187.7,344.4,198.2,344.5,210.4z"/>
<path class="st14" d="M324.9,260.9c0.1,2.2-0.8,4.4-2.3,6c-0.2,0.2-0.4,0.4-0.6,0.6c-1.5,1.3-3.3,2-5.3,2.1h-0.3
	c-4.4,0.1-8.1-3.1-8.6-7.5c0-0.2,0-0.5,0-0.7c0-0.9,0.7-1.7,1.6-1.7l13.9-0.4C324.2,259.3,324.9,260,324.9,260.9
	C324.9,260.9,324.9,260.9,324.9,260.9L324.9,260.9z"/>
<path class="st15" d="M316.5,268.3c0,0.4,0,0.9-0.1,1.3c-4.4,0.1-8.1-3.1-8.6-7.5c3.5-1.1,7.3,0.8,8.4,4.3
	C316.4,267,316.5,267.7,316.5,268.3L316.5,268.3z"/>
<path class="st16" d="M322.9,259.4c0,1.6-2.5,3-5.7,3.1s-5.7-1.2-5.8-2.8L322.9,259.4z"/>
<circle class="st17" cx="301.4" cy="239.7" r="3.6"/>
<circle class="st17" cx="333.9" cy="239.4" r="3.6"/>
<g>
	<circle class="st12" cx="261" cy="191" r="21.8"/>
	<circle class="st12" cx="292.1" cy="178.3" r="32.8"/>
	<circle class="st12" cx="261" cy="191" r="21.8"/>
	<circle class="st12" cx="292.1" cy="178.3" r="32.8"/>
</g>
<path class="st18" d="M319.3,160c-14.2-11.3-34.8-9-46.1,5.2c-1.4,1.8-2.7,3.7-3.7,5.8c-0.9,1.8-1.6,3.7-2.2,5.6
	c-12,0.3-21.6,10.2-21.3,22.2c0.1,3.6,1.1,7.2,2.8,10.3c-10-6.8-12.6-20.3-5.8-30.3c4-5.8,10.5-9.4,17.6-9.6
	c5-17.4,23.2-27.5,40.6-22.4C308.6,148.9,315,153.6,319.3,160L319.3,160z"/>
<circle class="st12" cx="331.8" cy="174.3" r="43"/>
<circle class="st12" cx="331.8" cy="174.3" r="43"/>
<path class="st19" d="M374.9,174.3c0,23.7-19.2,43-43,43c-1.6,0-3.3-0.1-4.9-0.3c23.6-2.6,40.7-23.8,38.1-47.4
	c-2.2-20.1-18-35.9-38.1-38.1c23.6-2.7,44.9,14.3,47.6,37.9C374.8,171,374.9,172.7,374.9,174.3z"/>
<path class="st12" d="M243.3,244.6l-1.5-48.6c-0.1-3.5,2.6-6.5,6.2-6.6c0.5,0,1,0,1.5,0.1c17,3.9,27.6,20.8,23.8,37.8
	c-2.5,11-10.8,19.9-21.6,23.2c-3.4,1.1-7-0.8-8.1-4.3C243.4,245.7,243.3,245.2,243.3,244.6z"/>
<path class="st19" d="M241.7,245.3l3.8-35.1c0.3-2.6,2.5-4.4,5.1-4.2c0.4,0,0.7,0.1,1.1,0.2c11.9,4.5,17.9,17.7,13.4,29.6
	c-2.9,7.7-9.7,13.3-17.9,14.6c-2.6,0.4-5-1.3-5.4-3.9C241.7,246.1,241.7,245.7,241.7,245.3L241.7,245.3z"/>
<circle class="st6" cx="253.8" cy="245.7" r="15.8"/>
<path class="st20" d="M248.5,246.1c0.1,2.8,1.8,5.4,4.5,6.4c1,0.4,2.2-0.1,2.6-1.2c0.1-0.3,0.1-0.5,0.1-0.8l-0.2-9.2
	c0-1.1-1-2-2.1-2c-0.3,0-0.6,0.1-0.9,0.2C250,240.7,248.4,243.3,248.5,246.1L248.5,246.1z"/>
<path class="st18" d="M613.6,232h61.2c23.2,0,42.1,18.8,42.1,42.1v174.5l0,0H613.6l0,0V232L613.6,232z"/>
<path class="st18" d="M613.6,232h61.2c23.2,0,42.1,18.8,42.1,42.1v174.5l0,0H613.6l0,0V232L613.6,232z"/>
<path class="st12" d="M716.9,274.1v174.5h-42.5V274.1c0-23.2-18.8-42-42-42.1h42.4C698,232,716.9,250.9,716.9,274.1z"/>
<path class="st19" d="M616.7,432.8c0.2,0.2,0.3,0.5,0.5,0.7c-2.4,0-4.8,0-7.2-0.1C612.2,433.2,614.5,433,616.7,432.8L616.7,432.8z"
	/>
<path class="st21" d="M633,396.4c0,8.2-3.6,15.9-9.8,21.2l-31,26.2l-22.7,19.2l-34.3,29c-11.2,10.4-28.7,9.8-39.2-1.4
	c-10.4-11.2-9.8-28.7,1.4-39.2c0.6-0.6,1.3-1.2,2-1.7l88-74.5c11.7-9.9,29.2-8.4,39.1,3.3C630.7,383.6,633,389.9,633,396.4
	L633,396.4z"/>
<path class="st22" d="M592.2,443.9l-22.7,19.2c-5.1-5.8-7.9-13.2-7.9-20.9v-2.4c0-13.4,4.1-26.5,11.8-37.4c2.2-3.2,4.7-6.1,7.4-8.8
	c1.2-1.2,2.5-2.4,3.8-3.5c-3.5,15.7-1.9,32.1,4.4,46.9C589.9,439.4,591,441.7,592.2,443.9L592.2,443.9z"/>
<path class="st23" d="M633,396.4c0,1.1-0.1,2.2-0.2,3.2c-1.9-15.2-15.7-26-30.9-24.1c-5.3,0.7-10.4,2.9-14.5,6.3l-88,74.5
	c-5.4,4.5-8.8,10.9-9.6,17.9c-1.1-9.3,2.5-18.5,9.6-24.5l88-74.5c11.7-9.9,29.2-8.4,39.1,3.3C630.7,383.6,633,389.9,633,396.4
	L633,396.4z"/>
<path class="st24" d="M586.7,444.1h86.5v115.8h-86.5V444.1z"/>
<path class="st25" d="M673.2,444.1v23.4c-26.1,15.9-55.9,24.7-86.5,25.6v-49L673.2,444.1z"/>
<path class="st22" d="M626.4,378.6c-1.1-1.3-2.3-2.5-3.7-3.6c9.6,11.7,8,28.9-3.5,38.7l-88,74.5c-10.2,8.6-25.1,8.8-35.4,0.3
	c0.1,0.1,0.2,0.2,0.3,0.4c9.9,11.7,27.4,13.1,39.1,3.2l88-74.5C634.8,407.8,636.3,390.3,626.4,378.6z"/>
<path class="st21" d="M519.2,499L519.2,499c-15.3,1.2-28.6-10.2-29.8-25.4l-8.2-103.1c-1.2-15.3,10.2-28.6,25.4-29.8h0
	c15.3-1.2,28.6,10.2,29.8,25.4l8.2,103.1C545.9,484.4,534.5,497.8,519.2,499z"/>
<path class="st26" d="M504.8,444L504.8,444c-4.5,0.4-8.5-3-8.9-7.5l-2.4-29.9c-0.4-4.5,3-8.5,7.5-8.9l0,0c4.5-0.4,8.5,3,8.9,7.5
	l2.4,29.9C512.7,439.6,509.3,443.6,504.8,444z"/>
<g>
	<path class="st21" d="M729.2,494.5L729.2,494.5c-12.3,9.2-29.6,6.7-38.8-5.6l-55.4-74c-9.2-12.3-6.7-29.6,5.6-38.8l0,0
		c12.3-9.2,29.6-6.7,38.8,5.6l55.4,74C743.9,468,741.4,485.3,729.2,494.5z"/>
	<path class="st21" d="M677.7,586.7L677.7,586.7c-14.7-4.4-22.9-19.9-18.5-34.6l26.7-88.4c4.4-14.7,19.9-22.9,34.6-18.5l0,0
		c14.7,4.4,22.9,19.9,18.5,34.6l-26.7,88.4C707.8,582.8,692.4,591.1,677.7,586.7z"/>
	
		<ellipse transform="matrix(0.837 -0.5473 0.5473 0.837 -201.0853 470.2901)" class="st21" cx="688.7" cy="572.6" rx="29.3" ry="37.2"/>
</g>
<path class="st22" d="M674.8,588.8c-0.9-1.4-1.7-2.8-2.5-4.3c-5.2-10.2-6.2-21.2-3.1-30c0.2-0.8,0.4-1.5,0.6-2.3l4-13.2l15.6-51.5
	l3-10.1l-7.5-10.1l-39.2-52.4c-8.2-11-7.2-26.2,2.4-36c2.1-2.1,3.6-4.7,4.3-7.6l0.1-0.3c-15.1,2.7-25.1,17.1-22.4,32.2
	c0.8,4.3,2.5,8.3,5.1,11.7l46.8,62.6l-22.6,74.8c-0.2,0.8-0.4,1.5-0.6,2.3c-3.5,10.1-1.7,23,5.6,34.2c9.1,13.9,24,21,36.6,18.5
	C691.1,605.4,681.4,598.9,674.8,588.8L674.8,588.8z"/>
<path class="st3" d="M722.9,550.1l-62.5-18.9c-2.2-0.7-3.4-3-2.8-5.2l0,0c0.7-2.2,3-3.4,5.2-2.8l62.5,18.9c2.2,0.7,3.4,3,2.8,5.2
	l0,0C727.4,549.5,725.1,550.7,722.9,550.1z"/>
<path class="st8" d="M721.3,538.8l-53.9-16.3c-2.2-0.7-3.4-3-2.8-5.2l0,0c0.7-2.2,3-3.4,5.2-2.8l53.9,16.3c2.2,0.7,3.4,3,2.8,5.2
	l0,0C725.8,538.2,723.5,539.5,721.3,538.8z"/>
<path class="st23" d="M519.5,498.9c-0.1,0-0.2,0-0.2,0c-0.8,0.1-1.5,0.1-2.2,0.1c-14.4,0-26.4-11.1-27.6-25.5l-8.2-103.1
	c-1.2-15.2,10.1-28.6,25.3-29.8c1.6-0.1,3.2-0.1,4.8,0c-15.2,1.3-26.4,14.6-25.2,29.8l8.2,103.1C495.4,487,506,497.7,519.5,498.9
	L519.5,498.9z"/>
<path class="st24" d="M696.6,433.1v2.3c0,17.4-14.1,31.5-31.5,31.5h-67.7c-17.4,0-31.6-14.1-31.6-31.5c0,0,0,0,0,0v-2.4
	c-0.4-36.1,28.5-65.8,64.6-66.2c36.1-0.4,65.8,28.5,66.2,64.6C696.6,432,696.6,432.5,696.6,433.1L696.6,433.1z"/>
<path class="st27" d="M565.5,433.1v2.3c0,17.4,14.1,31.5,31.5,31.6h28.4c-29.3-16.8-44.2-50.7-37-83.7c-1.3,1.1-2.6,2.3-3.8,3.5
	c-2.7,2.7-5.2,5.7-7.4,8.8C569.6,406.7,565.5,419.7,565.5,433.1L565.5,433.1z"/>
<path class="st21" d="M684.9,395.7c-13.1,14-31.1,22.4-50.3,23.5c-1.5,0.1-3.1,0.2-4.6,0.2c-0.9,0-1.9,0-2.8-0.1
	c-19.1-0.7-37.2-8.6-50.6-22.1c11.7-17.8,31.8-30.8,54.7-30.8c18.1,0,34.4,8.6,46.3,20.4C680.2,389.6,682.7,392.5,684.9,395.7
	L684.9,395.7z"/>
<path class="st22" d="M634.6,419.3c-1.5,0.1-3.1,0.2-4.6,0.2c-0.9,0-1.9,0-2.8-0.1l0.8-4.8c0.3-1.6,1.8-2.6,3.4-2.3
	c1.2,0.2,2.1,1.1,2.3,2.3L634.6,419.3z"/>
<ellipse transform="matrix(0.6698 -0.7426 0.7426 0.6698 -99.2782 501.8669)" class="st21" cx="514.6" cy="362.6" rx="29.3" ry="37.2"/>
<path class="st23" d="M545.9,357.3c-2.3-3.8-5.2-7.3-8.5-10.3c-15.2-13.8-36.4-15.2-47.3-3.1c-7,7.8-8,19.3-3.6,30.3
	c-7.6-12.5-7.8-27.1,0.5-36.4c10.8-12,32-10.6,47.2,3.1C539.4,345.3,543.3,351,545.9,357.3z"/>
<circle class="st3" cx="669.3" cy="255.2" r="26.4"/>
<circle class="st12" cx="664.1" cy="256.3" r="24.2"/>
<path class="st12" d="M623.7,229.8l11.8-0.6c20.5-1,37.9,14.7,38.9,35.2l2.1,41.4c1.3,26.8-19.3,49.7-46.2,51l-3.6,0.2
	c-26.8,1.3-49.7-19.3-51-46.2l-1.3-26.5C573,255.6,595,231.2,623.7,229.8L623.7,229.8z"/>
<path class="st21" d="M648.5,342.2l0.3,9.2l0.6,19.8c0.3,8.8-6.6,16.1-15.4,16.4s-16.1-6.6-16.4-15.4l-0.1-2.1l-0.8-26.9
	c-0.3-8.8,6.6-16.1,15.4-16.4S648.3,333.4,648.5,342.2z"/>
<path class="st28" d="M648.5,342.2l0.3,9.2c-7.9,9.7-19,16.4-31.3,18.7l-0.8-26.9c-0.3-8.8,6.6-16.1,15.4-16.4
	S648.3,333.4,648.5,342.2L648.5,342.2z"/>
<path class="st21" d="M672.3,269.4v34.8c-0.1,29.6-24.1,53.5-53.7,53.5c-22.8,0-41.3-18.6-41.3-41.4v-29.2c0-0.2,0-0.4,0-0.5
	c0-0.8,0-1.6,0.1-2.4c1.6-29.2,25.5-52.1,54.8-52.5h2.5c2.4,0,4.8,0.2,7.1,0.7C659.5,235.8,672.3,251.4,672.3,269.4L672.3,269.4z"/>
<path class="st28" d="M613.3,357.4c-16.2-6-27-21.5-26.9-38.8l0-29.2c0-0.2,0-0.4,0-0.5c0-0.8,0-1.6,0.1-2.4
	c1.6-29.2,25.5-52.1,54.8-52.5h2.5c1.5,0,3,0.1,4.5,0.3c-2.1-0.8-4.2-1.4-6.4-1.8c-2.3-0.5-4.7-0.7-7.1-0.7h-2.5
	c-29.2,0.4-53.2,23.3-54.8,52.5c-0.1,0.8-0.1,1.6-0.1,2.4v0.5v29.2C577.3,337.2,592.7,354.7,613.3,357.4L613.3,357.4z"/>
<path class="st28" d="M681.1,293.8l-11.4-21c-1.1-2-2.5-3.8-4.2-5.4l1.2-0.3c0.4-0.1,1.2-6,1.2-6.4c0-0.1,0-0.2-0.1-0.3
	c-4.5-12.5-13.9-22.7-26-28.1c-2.3-0.5-4.7-0.7-7.1-0.7h-2.5c-29.2,0.3-53.2,23.3-54.8,52.5c9.9,2.8,20.4,2.5,30.1-1l16-4.4
	c11.1-3,22.9,2,28.4,12.1c5.4,9.9,17.7,13.5,27.6,8.2C681.3,298.2,682.1,295.8,681.1,293.8z"/>
<path class="st12" d="M648.5,252.2l5.7-0.3c16.1-0.8,29.8,11.5,30.6,27.6c0,0,0,0,0,0.1l0.8,16.4c0.2,3.1-2.3,5.8-5.4,6l0,0
	c-16.1,0.8-29.8-11.6-30.6-27.6c0,0,0,0,0,0L648.5,252.2L648.5,252.2L648.5,252.2z"/>
<circle class="st21" cx="670.2" cy="294.2" r="16.8"/>
<path class="st29" d="M671.8,310.9c-3.4,26.8-26.2,46.9-53.2,46.9c-5.9,0-11.7-1.3-17-3.7c3.6,1,7.4,1.6,11.1,1.5
	c26.4,0,48.9-19.2,53-45.3c0.1-0.5,0.2-1,0.2-1.6c2.2-0.2,4.3-0.8,6.2-1.8c8.2-4.3,11.4-14.5,7-22.7c-1.4-2.7-3.6-5-6.3-6.6
	c9.1,1.5,15.4,10.1,13.9,19.3C685.6,304.4,679.4,310.2,671.8,310.9L671.8,310.9z"/>
<path class="st23" d="M672.9,277.6h-0.2h-0.5v-0.3L672.9,277.6z"/>
<path class="st28" d="M675.9,293.1c-0.6-2.8-2.9-5-5.7-5.5c-1.1-0.2-2.1,0.5-2.3,1.6c-0.1,0.3,0,0.6,0,0.9l2.1,9.1
	c0.3,1.1,1.4,1.8,2.5,1.5c0.3-0.1,0.6-0.2,0.8-0.4C675.4,298.6,676.5,295.8,675.9,293.1z"/>
<circle class="st30" cx="591.5" cy="294.2" r="4"/>
<circle class="st30" cx="623.8" cy="295.7" r="4"/>
<path class="st12" d="M679,264.3l-45.4,12.6c-32.7,9.1-66.5-10.1-75.6-42.8l0,0l45.4-12.6C636.1,212.5,669.9,231.6,679,264.3
	L679,264.3z"/>
<path class="st19" d="M580.8,267.1l-0.2-0.2c-8.4-10-3.5-25.5,9.1-29l24.1-6.7c18.2-5.1,37.7-1.4,52.9,9.8
	c-15.5-18.3-40.2-25.9-63.3-19.5l-45.3,12.6C561.7,247.3,569.7,259,580.8,267.1z"/>
<path class="st19" d="M699.1,276.8L699.1,276.8c2.8,0,5,2.2,5,5v116.9c0,2.8-2.2,5-5,5l0,0c-2.8,0-5-2.2-5-5V281.8
	C694.1,279.1,696.3,276.8,699.1,276.8z"/>
<path class="st14" d="M599.5,310.4c-0.1,2.2,0.8,4.4,2.3,6c0.2,0.2,0.4,0.4,0.6,0.6c1.5,1.3,3.3,2,5.3,2.1h0.3
	c1.8,0.1,3.5-0.5,5-1.5c2-1.4,3.3-3.6,3.6-6c0-0.2,0-0.5,0-0.7c0-0.4-0.1-0.9-0.4-1.2c-0.3-0.3-0.7-0.5-1.1-0.5l-13.9-0.4
	C600.2,308.7,599.5,309.5,599.5,310.4L599.5,310.4z"/>
<path class="st15" d="M607.9,317.7c0,0.4,0,0.9,0.1,1.3h0c4.4,0.1,8.1-3.1,8.6-7.5c-3.5-1.1-7.3,0.8-8.4,4.3
	C608,316.5,607.9,317.1,607.9,317.7z"/>
<path class="st16" d="M601.5,308.8c0,1.6,2.5,3,5.7,3.1s5.7-1.2,5.8-2.8L601.5,308.8z"/>
<g>
	<path class="st31" d="M452.3,541.2h6.1c3.2,0,5.8,2.6,5.8,5.8c0,0,0,0,0,0v3.4l0,0h-17.8l0,0v-3.4
		C446.4,543.8,449,541.2,452.3,541.2C452.2,541.2,452.2,541.2,452.3,541.2z"/>
	<path class="st31" d="M434.5,541.2h6.1c3.2,0,5.8,2.6,5.8,5.8c0,0,0,0,0,0v3.4l0,0h-17.8l0,0v-3.4
		C428.7,543.8,431.3,541.2,434.5,541.2C434.5,541.2,434.5,541.2,434.5,541.2L434.5,541.2z"/>
	<path class="st31" d="M416.8,541.2h6.1c3.2,0,5.8,2.6,5.8,5.8c0,0,0,0,0,0v3.4l0,0h-17.8l0,0v-3.4
		C410.9,543.8,413.5,541.2,416.8,541.2L416.8,541.2L416.8,541.2z"/>
	<path class="st31" d="M399,541.2h6.1c3.2,0,5.8,2.6,5.8,5.8l0,0v3.4l0,0h-17.8l0,0v-3.4C393.2,543.8,395.8,541.2,399,541.2
		L399,541.2L399,541.2z"/>
	<path class="st31" d="M381.3,541.2h6.1c3.2,0,5.8,2.6,5.8,5.8l0,0v3.4l0,0h-17.8l0,0v-3.4C375.4,543.8,378,541.2,381.3,541.2
		C381.2,541.2,381.3,541.2,381.3,541.2z"/>
	<path class="st31" d="M363.5,541.2h6.1c3.2,0,5.8,2.6,5.8,5.8l0,0v3.4l0,0h-17.7l0,0v-3.4C357.7,543.8,360.3,541.2,363.5,541.2z"/>
	<path class="st31" d="M345.8,541.2h6.1c3.2,0,5.8,2.6,5.8,5.8l0,0v3.4l0,0H340l0,0v-3.4C340,543.8,342.6,541.2,345.8,541.2
		L345.8,541.2L345.8,541.2z"/>
</g>
<path class="st9" d="M323.6,545.5h188.1c4,0,7.2,3.2,7.2,7.2v0c0,4-3.2,7.2-7.2,7.2H323.6c-4,0-7.2-3.2-7.2-7.2v0
	C316.4,548.7,319.6,545.5,323.6,545.5z"/>
<path class="st32" d="M463.1,559.9h169c7.1,0,13.3-4.8,15-11.7l32.9-130.9c2.1-8.3-2.9-16.7-11.2-18.8c-1.2-0.3-2.5-0.5-3.8-0.5
	H515.9c-7.1,0-13.3,4.8-15,11.7L463.1,559.9z"/>
<path class="st9" d="M680,417.4l-32.9,130.9c-1.7,6.9-7.9,11.7-15,11.7h-169l3.7-14.5h133.5c7.1,0,13.3-4.8,15-11.7l32.9-130.9
	c0.4-1.6,0.5-3.2,0.4-4.8H665c8.5,0,15.5,6.9,15.5,15.5C680.5,414.9,680.3,416.1,680,417.4L680,417.4z"/>
<g>
	<circle class="st31" cx="582.2" cy="483.3" r="8.5"/>
	<path class="st31" d="M593.5,496c-4.9,7.7-15.2,10-22.9,5.1c-7.7-4.9-10-15.2-5.1-22.9c1.3-2,3-3.8,5.1-5.1
		c-4.9,7.7-2.7,18,5.1,22.9C581.1,499.5,588,499.5,593.5,496z"/>
</g>
</svg>
