<svg id="visual" viewBox="0 0 900 600" width="900" height="600" xmlns="http://www.w3.org/2000/svg" xmlns:xlink="http://www.w3.org/1999/xlink" version="1.1"><rect x="0" y="0" width="900" height="600" fill="#121214"></rect><path d="M0 516L21.5 516C43 516 86 516 128.8 503.3C171.7 490.7 214.3 465.3 257.2 447.7C300 430 343 420 385.8 411C428.7 402 471.3 394 514.2 402.3C557 410.7 600 435.3 642.8 449.8C685.7 464.3 728.3 468.7 771.2 459.3C814 450 857 427 878.5 415.5L900 404L900 601L878.5 601C857 601 814 601 771.2 601C728.3 601 685.7 601 642.8 601C600 601 557 601 514.2 601C471.3 601 428.7 601 385.8 601C343 601 300 601 257.2 601C214.3 601 171.7 601 128.8 601C86 601 43 601 21.5 601L0 601Z" fill="#0066FF" stroke-linecap="round" stroke-linejoin="miter"></path></svg>