<svg id="Layer_1" data-name="Layer 1" xmlns="http://www.w3.org/2000/svg" viewBox="0 0 132.46 143.59"><defs><style>.cls-1{fill:#3b3f99;}.cls-2{fill:#5655a5;}.cls-3{fill:#a7a9ac;}</style></defs><path class="cls-1" d="M192.15,133.49H154.22c0-3.44-.05-6.87-.08-10.31h19.17l-13.5-37.67H92.06q-6.63,18.83-13.25,37.67h19l0,10.31h-38l0-10.32h8.8Q92.59,61.69,116.7.21h17.57l49.35,123.06,8.54-.09C192.15,126.62,192.15,130.05,192.15,133.49Zm-36.27-58.3q-14.26-31.92-28.52-63.84h-3.72L96,75.19Z" transform="translate(-59.7 -0.2)"/><path class="cls-2" d="M192.15,143.8H154.22V133.49h19v-123H171l-37.83,75H119.12Q99.91,48,80.71,10.51h-2v123h19V143.8h-38V133.49h8.71v-123h-6.5V.2H87.21l38.51,76.88L164.65.2h25.29V10.51h-6.39v123h8.6Z" transform="translate(-59.7 -0.2)"/><path class="cls-3" d="M121.85,34.45" transform="translate(-59.7 -0.2)"/><path class="cls-3" d="M121.9,34.45" transform="translate(-59.7 -0.2)"/><path class="cls-3" d="M137.31,78.53" transform="translate(-59.7 -0.2)"/></svg>