<?xml version="1.0" encoding="UTF-8"?><svg id="Layer_1" xmlns="http://www.w3.org/2000/svg" viewBox="0 0 205.94 139.28"><defs><style>.cls-1{fill:#71c494;}.cls-2{fill:#42b649;}</style></defs><path class="cls-1" d="M205.94,68.37c-12.59,0-14.36,6.95-14.36,11.96,0,4.36,.71,8.73,1.42,13.09,.71,4.36,1.42,8.89,1.42,13.25,0,3.72-.69,10.53-5.65,15.67-5.43,5.63-13.53,6.4-17.67,6.79-1.64,.16-3.01,.17-3.98,.16,0-3.33,0-6.67,0-10,.21,0,.52-.01,.89-.03,2.2-.11,7.28-.35,10.22-2.5,3.27-2.39,3.93-6.95,3.93-10.89s-.71-7.59-1.24-11.63c-.71-3.88-1.42-7.92-1.42-12.28,0-10.34,4.97-15.83,12.77-17.61v-.32c-7.8-1.94-12.77-7.11-12.77-17.45,0-4.36,.71-8.24,1.42-12.28,.53-3.88,1.24-7.76,1.24-11.47,0-4.13-.44-8.06-3.23-10.25-2.15-1.68-5.39-2.02-8.24-2.31-1.74-.18-3.71-.22-3.71-.22-.83-.02-1.52-.01-2.02,0,0-3.33,0-6.66,0-10h3.55c15.07,0,25.89,6.3,25.89,21.17,0,4.52-.71,8.89-1.42,13.41-.71,4.52-1.42,9.05-1.42,13.57,0,5.66,1.77,11.96,14.36,11.96v8.24Z"/><path class="cls-1" d="M0,60.11c12.59,0,14.36-6.3,14.36-11.96,0-4.52-.71-9.05-1.42-13.57-.71-4.52-1.42-8.89-1.42-13.41C11.53,6.3,22.34,0,37.41,0h3.55c0,3.33,0,6.66,0,10-.5,0-1.19-.01-2.02,0,0,0-1.97,.04-3.71,.22-2.85,.29-6.09,.63-8.24,2.31-2.79,2.18-3.23,6.12-3.23,10.25,0,3.72,.71,7.59,1.24,11.47,.71,4.04,1.42,7.92,1.42,12.28,0,10.34-4.97,15.51-12.77,17.45v.32c7.8,1.78,12.77,7.27,12.77,17.61,0,4.36-.71,8.4-1.42,12.28-.53,4.04-1.24,7.76-1.24,11.63s.66,8.5,3.93,10.89c2.94,2.15,8.02,2.4,10.22,2.5,.37,.02,.68,.03,.89,.03,0,3.33,0,6.67,0,10-.97,.02-2.34,0-3.98-.16-4.13-.39-12.23-1.16-17.67-6.79-4.96-5.14-5.65-11.95-5.65-15.67,0-4.36,.71-8.89,1.42-13.25,.71-4.36,1.42-8.73,1.42-13.09,0-5.01-1.77-11.96-14.36-11.96v-8.24Z"/><g><path class="cls-1" d="M167.12,129.28h-36.78c0-3.34-.05-6.66-.08-10h18.59l-13.09-36.53H70.06c-4.29,12.17-8.57,24.35-12.85,36.53h18.43v10H38.78v-10.01h8.53C62.82,79.53,78.36,39.78,93.95,.03h17.04l47.86,119.34,8.28-.09c0,3.34,0,6.66,0,10Zm-35.17-56.54c-9.22-20.64-18.44-41.27-27.66-61.91h-3.61l-26.8,61.91h58.07Z"/><path class="cls-2" d="M167.12,139.28h-36.78v-10h18.43V10h-2.15l-36.69,72.73h-13.63c-12.42-24.24-24.84-48.48-37.25-72.71h-1.94v119.28h18.43v9.98H38.68v-10h8.45V10h-6.3V.02h24.53l37.35,74.56L140.45,.02h24.53V10.02h-6.2v119.28h8.34v9.98Z"/></g></svg>